<?xml version="1.0" encoding="UTF-8" standalone="no"?>
<!-- Created with Inkscape (http://www.inkscape.org/) -->

<svg
   width="85mm"
   height="30mm"
   viewBox="0 0 84.999999 29.999994"
   version="1.1"
   id="svg1207"
   inkscape:version="1.2.2 (b0a8486541, 2022-12-01)"
   sodipodi:docname="seafood-depot-logo.svg"
   xmlns:inkscape="http://www.inkscape.org/namespaces/inkscape"
   xmlns:sodipodi="http://sodipodi.sourceforge.net/DTD/sodipodi-0.dtd"
   xmlns="http://www.w3.org/2000/svg"
   xmlns:svg="http://www.w3.org/2000/svg">
  <sodipodi:namedview
     id="namedview1209"
     pagecolor="#505050"
     bordercolor="#eeeeee"
     borderopacity="1"
     inkscape:showpageshadow="0"
     inkscape:pageopacity="0"
     inkscape:pagecheckerboard="0"
     inkscape:deskcolor="#505050"
     inkscape:document-units="mm"
     showgrid="false"
     inkscape:zoom="2.007647"
     inkscape:cx="252.03634"
     inkscape:cy="106.59244"
     inkscape:window-width="1920"
     inkscape:window-height="1011"
     inkscape:window-x="0"
     inkscape:window-y="32"
     inkscape:window-maximized="1"
     inkscape:current-layer="layer1" />
  <defs
     id="defs1204">
    <clipPath
       clipPathUnits="userSpaceOnUse"
       id="clipPath46">
      <path
         d="M 0,1280 H 1280 V 0 H 0 Z"
         id="path44" />
    </clipPath>
  </defs>
  <g
     inkscape:label="Layer 1"
     inkscape:groupmode="layer"
     id="layer1">
    <g
       id="g42"
       clip-path="url(#clipPath46)"
       style="display:inline"
       transform="matrix(0.06907831,0,0,-0.06907831,-0.9397709,59.210111)">
      <g
         id="g48"
         transform="translate(514.5498,601.9668)">
        <path
           d="m 0,0 c -7.081,0 -14.647,1.649 -18.624,3.783 l 5.335,14.356 c 3.104,-1.843 8.051,-3.298 12.513,-3.298 5.238,0 8.148,2.716 8.148,6.499 0,3.783 -3.492,6.014 -7.857,8.051 -7.372,3.492 -17.266,8.73 -17.266,21.534 0,12.998 8.536,21.631 23.377,21.631 7.178,0 13.095,-1.649 16.878,-3.783 L 17.46,55.581 c -2.522,1.358 -6.79,2.91 -11.058,2.91 -4.85,0 -7.663,-2.716 -7.663,-6.499 0,-3.686 3.589,-6.014 7.954,-8.245 C 14.065,39.964 24.347,35.017 24.347,22.31 24.347,9.215 15.811,0 0,0"
           style="fill:#3d3d3d;fill-opacity:1;fill-rule:nonzero;stroke:none"
           id="path50" />
      </g>
      <g
         id="g52"
         transform="translate(570.4204,645.3257)">
        <path
           d="m 0,0 c -5.626,0 -9.991,-3.88 -10.088,-12.513 l 18.43,2.328 C 8.342,-3.589 5.141,0 0,0 m 23.571,-18.139 -32.592,-4.268 c 1.261,-5.723 6.208,-8.536 12.707,-8.536 5.238,0 10.864,1.261 14.744,3.201 l 4.462,-11.834 c -4.753,-2.231 -12.61,-3.783 -20.467,-3.783 -18.139,0 -27.063,11.834 -27.063,27.354 0,16.005 9.312,27.257 25.026,27.257 15.229,0 23.377,-10.185 23.377,-24.541 0,-1.649 0,-3.201 -0.194,-4.85"
           style="fill:#3d3d3d;fill-opacity:1;fill-rule:nonzero;stroke:none"
           id="path54" />
      </g>
      <g
         id="g56"
         transform="translate(630.0762,627.187)">
        <path
           d="m 0,0 c -8.633,-0.388 -15.132,-1.358 -15.132,-7.566 0,-4.268 3.589,-6.596 9.312,-6.596 2.231,0 4.753,0.388 5.82,0.776 z m -5.335,-25.22 c -16.49,0 -24.638,6.111 -24.638,17.266 0,13.871 14.162,17.072 29.973,17.945 v 2.037 c 0,4.171 -2.91,6.111 -8.342,6.111 -5.044,0 -11.058,-1.649 -14.841,-3.201 l -3.88,10.67 c 4.656,1.843 12.513,3.783 20.661,3.783 14.259,0 21.437,-5.432 21.437,-19.303 V -21.437 C 11.059,-23.474 3.007,-25.22 -5.335,-25.22"
           style="fill:#3d3d3d;fill-opacity:1;fill-rule:nonzero;stroke:none"
           id="path58" />
      </g>
      <g
         id="g60"
         transform="translate(681.9717,667.0537)">
        <path
           d="m 0,0 c -4.56,0 -7.954,-1.746 -7.954,-6.402 v -5.238 h 9.311 v -11.931 h -9.311 v -40.352 h -15.714 v 40.352 h -6.015 v 11.931 h 6.015 v 5.238 c 0,13.192 8.535,19.012 20.661,19.012 1.745,0 3.977,-0.194 5.335,-0.388 V -0.097 C 1.552,0 0.775,0 0,0"
           style="fill:#3d3d3d;fill-opacity:1;fill-rule:nonzero;stroke:none"
           id="path62" />
      </g>
      <g
         id="g64"
         transform="translate(712.5273,644.1621)">
        <path
           d="m 0,0 c -5.626,0 -8.536,-5.044 -8.536,-14.647 0,-9.603 2.91,-14.744 8.536,-14.744 5.626,0 8.535,5.141 8.535,14.744 C 8.535,-5.044 5.626,0 0,0 m 0,-42.195 c -15.617,0 -24.541,11.737 -24.541,27.354 0,15.617 8.924,27.257 24.541,27.257 15.616,0 24.541,-11.64 24.541,-27.257 0,-15.617 -8.925,-27.354 -24.541,-27.354"
           style="fill:#3d3d3d;fill-opacity:1;fill-rule:nonzero;stroke:none"
           id="path66" />
      </g>
      <g
         id="g68"
         transform="translate(768.5918,644.1621)">
        <path
           d="m 0,0 c -5.626,0 -8.536,-5.044 -8.536,-14.647 0,-9.603 2.91,-14.744 8.536,-14.744 5.626,0 8.536,5.141 8.536,14.744 C 8.536,-5.044 5.626,0 0,0 m 0,-42.195 c -15.617,0 -24.541,11.737 -24.541,27.354 0,15.617 8.924,27.257 24.541,27.257 15.617,0 24.541,-11.64 24.541,-27.257 0,-15.617 -8.924,-27.354 -24.541,-27.354"
           style="fill:#3d3d3d;fill-opacity:1;fill-rule:nonzero;stroke:none"
           id="path70" />
      </g>
      <g
         id="g72"
         transform="translate(831.2529,643.1919)">
        <path
           d="m 0,0 c -0.873,0.388 -3.007,0.776 -4.851,0.776 -6.789,0 -10.281,-5.917 -10.281,-14.647 0,-9.797 3.783,-14.938 10.476,-14.938 1.746,0 3.783,0.291 4.656,0.679 z m -4.365,-41.225 c -17.364,0 -26.772,9.7 -26.772,27.16 0,16.199 8.342,26.772 24.541,26.772 2.327,0 5.141,-0.485 6.596,-0.97 v 24.347 h 16.005 v -73.526 c -4.074,-2.134 -11.834,-3.783 -20.37,-3.783"
           style="fill:#3d3d3d;fill-opacity:1;fill-rule:nonzero;stroke:none"
           id="path74" />
      </g>
      <g
         id="g76"
         transform="translate(902.1582,660.749)">
        <path
           d="m 0,0 c -1.843,0 -3.492,-0.291 -4.462,-0.679 v -43.747 c 0.97,-0.388 2.619,-0.582 4.462,-0.582 8.536,0 13.871,6.596 13.871,22.504 C 13.871,-6.596 8.536,0 0,0 m -0.97,-58.782 c -8.051,0 -15.52,1.649 -19.982,3.783 v 64.99 c 4.365,2.037 12.125,3.783 19.982,3.783 20.66,0 31.331,-13.095 31.331,-36.278 0,-23.183 -10.671,-36.278 -31.331,-36.278"
           style="fill:#3d3d3d;fill-opacity:1;fill-rule:nonzero;stroke:none"
           id="path78" />
      </g>
      <g
         id="g80"
         transform="translate(964.5283,645.3257)">
        <path
           d="m 0,0 c -5.626,0 -9.99,-3.88 -10.088,-12.513 l 18.431,2.328 C 8.343,-3.589 5.142,0 0,0 m 23.571,-18.139 -32.592,-4.268 c 1.261,-5.723 6.208,-8.536 12.708,-8.536 5.238,0 10.864,1.261 14.744,3.201 l 4.462,-11.834 c -4.753,-2.231 -12.611,-3.783 -20.467,-3.783 -18.14,0 -27.064,11.834 -27.064,27.354 0,16.005 9.313,27.257 25.027,27.257 15.228,0 23.377,-10.185 23.377,-24.541 0,-1.649 0,-3.201 -0.195,-4.85"
           style="fill:#3d3d3d;fill-opacity:1;fill-rule:nonzero;stroke:none"
           id="path82" />
      </g>
      <g
         id="g84"
         transform="translate(1017.6846,644.356)">
        <path
           d="m 0,0 c -1.843,0 -3.687,-0.388 -4.656,-0.776 v -28.13 c 0.873,-0.388 2.91,-0.776 4.753,-0.776 6.79,0 10.379,6.014 10.379,14.744 C 10.476,-5.141 6.693,0 0,0 m 1.843,-41.71 c -2.328,0 -5.044,0.388 -6.499,0.873 V -62.08 H -20.661 V 8.439 c 4.171,2.134 11.931,3.783 20.37,3.783 17.363,0 26.771,-9.7 26.771,-27.16 0,-16.199 -8.438,-26.772 -24.637,-26.772"
           style="fill:#3d3d3d;fill-opacity:1;fill-rule:nonzero;stroke:none"
           id="path86" />
      </g>
      <g
         id="g88"
         transform="translate(1075.6895,644.1621)">
        <path
           d="m 0,0 c -5.626,0 -8.536,-5.044 -8.536,-14.647 0,-9.603 2.91,-14.744 8.536,-14.744 5.626,0 8.536,5.141 8.536,14.744 C 8.536,-5.044 5.626,0 0,0 m 0,-42.195 c -15.617,0 -24.541,11.737 -24.541,27.354 0,15.617 8.924,27.257 24.541,27.257 15.617,0 24.541,-11.64 24.541,-27.257 0,-15.617 -8.924,-27.354 -24.541,-27.354"
           style="fill:#3d3d3d;fill-opacity:1;fill-rule:nonzero;stroke:none"
           id="path90" />
      </g>
      <g
         id="g92"
         transform="translate(1127.0029,602.2578)">
        <path
           d="m 0,0 c -10.864,0 -15.423,5.917 -15.423,17.654 v 23.571 h -6.208 v 11.931 h 6.208 V 64.311 L 0.194,68.676 V 53.156 H 9.312 V 41.225 H 0.194 V 18.818 c 0,-3.589 2.134,-4.753 5.141,-4.753 1.455,0 3.007,0.388 3.977,0.873 V 1.746 C 7.566,0.873 3.783,0 0,0"
           style="fill:#3d3d3d;fill-opacity:1;fill-rule:nonzero;stroke:none"
           id="path94" />
      </g>
      <g
         id="g96"
         transform="translate(237.5814,507.621)">
        <path
           d="m 0,0 c -20.573,0 -39.591,12.289 -50.872,32.872 -3.919,7.151 -1.299,16.126 5.852,20.045 7.152,3.92 16.126,1.299 20.045,-5.852 C -18.958,36.086 -9.621,29.531 0,29.531 c 7.714,0 15.194,4.113 21.062,11.582 6.692,8.517 10.378,20.045 10.378,32.459 0,10.151 -4.486,19.842 -13.332,28.804 -9.641,9.766 -20.818,15.075 -24.013,16.47 -5.663,2.471 -20.236,9.638 -33.219,22.79 -14.292,14.478 -21.847,31.612 -21.847,49.55 0,19.001 5.927,37.008 16.688,50.705 11.587,14.746 27.313,22.867 44.283,22.867 10.639,0 21.02,-3.23 30.022,-9.34 8.333,-5.657 15.522,-13.832 20.79,-23.642 3.859,-7.184 1.163,-16.136 -6.021,-19.994 -7.184,-3.859 -16.136,-1.163 -19.995,6.021 C 18.849,228.876 9.811,235.227 0,235.227 c -7.714,0 -15.194,-4.113 -21.061,-11.581 -6.693,-8.518 -10.378,-20.046 -10.378,-32.46 0,-10.151 4.485,-19.842 13.332,-28.804 9.64,-9.766 20.817,-15.075 24.013,-16.47 5.663,-2.471 20.236,-9.638 33.218,-22.79 C 53.417,108.644 60.971,91.51 60.971,73.572 60.971,54.571 55.044,36.564 44.283,22.867 32.696,8.121 16.97,0 0,0"
           style="fill:#1c2a35;fill-opacity:1;fill-rule:nonzero;stroke:none"
           id="path98" />
      </g>
      <g
         id="g100"
         transform="translate(341.207,741.7908)">
        <path
           d="m 0,0 v -203.582 c 49.742,7.182 88.082,50.093 88.082,101.791 C 88.082,-50.092 49.742,-7.181 0,0 m -14.766,-234.17 c -8.155,0 -14.765,6.611 -14.765,14.766 V 15.823 c 0,8.155 6.61,14.765 14.765,14.765 35.36,0 68.603,-13.77 93.607,-38.773 25.003,-25.003 38.772,-58.246 38.772,-93.606 0,-35.359 -13.769,-68.603 -38.772,-93.606 C 53.837,-220.4 20.594,-234.17 -14.766,-234.17"
           style="fill:#1c2a35;fill-opacity:1;fill-rule:nonzero;stroke:none"
           id="path102" />
      </g>
      <g
         id="g104"
         transform="translate(136.1435,678.4207)">
        <path
           d="m 0,0 c -1.902,0 -3.82,-0.368 -5.647,-1.124 -5.518,-2.286 -9.115,-7.67 -9.115,-13.642 v -48.703 c 0,-5.973 3.597,-11.357 9.115,-13.642 1.826,-0.757 3.745,-1.125 5.647,-1.125 3.843,0 7.619,1.501 10.444,4.326 l 24.352,24.351 c 5.766,5.767 5.766,15.116 0,20.882 L 10.444,-4.325 C 7.62,-1.501 3.843,0 0,0"
           style="fill:#24221c;fill-opacity:1;fill-rule:nonzero;stroke:none"
           id="path106" />
      </g>
    </g>
  </g>
</svg>
